PathFileType	4	(x/y/z)	S08_P20_T14
DataRate	CameraRate	NumFrames	NumMarkers	Units	OrigDataRate	OrigDataStartFrame	OrigNumFrames
240	240	10	51	mm	240	247	394
Frame#	Time	Sternum			R.Acromium			L.Acromium			Top.Head			R.ASIS			L.ASIS			R.PSIS			L.PSIS			R.Great.Tro			L.Great.Tro			R.Iliac.Crest			L.Iliac.Crest			V.Sacral			R.Thigh.Upper.Post			R.Thigh.Lower.Ant			R.Thigh.Lower.Post			R.Thigh.Upper.Ant			R.Knee.Lat			R.Knee.Med			R.Shank.Upper.Post			R.Shank.Lower.Ant			R.Shank.Lower.Post			R.Shank.Upper.Ant			R.Ankle.Lat			R.Ankle.Med			R.Heel.Upper			R.Heel.Med			R.Heel.Lat			R.Toe.Lat			R.Toe.Med			R.Toe.Tip			L.Thigh.Upper.Post			L.Thigh.Lower.Ant			L.Thigh.Lower.Post			L.Thigh.Upper.Ant			L.Knee.Lat			L.Knee.Med			L.Shank.Upper.Post			L.Shank.Lower.Ant			L.Shank.Lower.Post			L.Shank.Upper.Ant			L.Ankle.Lat			L.Ankle.Med			L.Heel.Upper			L.Heel.Med			L.Heel.Lat			L.Toe.Lat			L.Toe.Med			L.Toe.Tip			Cervical.Spine			Back			
		X1	Y1	Z1	X2	Y2	Z2	X3	Y3	Z3	X4	Y4	Z4	X5	Y5	Z5	X6	Y6	Z6	X7	Y7	Z7	X8	Y8	Z8	X9	Y9	Z9	X10	Y10	Z10	X11	Y11	Z11	X12	Y12	Z12	X13	Y13	Z13	X14	Y14	Z14	X15	Y15	Z15	X16	Y16	Z16	X17	Y17	Z17	X18	Y18	Z18	X19	Y19	Z19	X20	Y20	Z20	X21	Y21	Z21	X22	Y22	Z22	X23	Y23	Z23	X24	Y24	Z24	X25	Y25	Z25	X26	Y26	Z26	X27	Y27	Z27	X28	Y28	Z28	X29	Y29	Z29	X30	Y30	Z30	X31	Y31	Z31	X32	Y32	Z32	X33	Y33	Z33	X34	Y34	Z34	X35	Y35	Z35	X36	Y36	Z36	X37	Y37	Z37	X38	Y38	Z38	X39	Y39	Z39	X40	Y40	Z40	X41	Y41	Z41	X42	Y42	Z42	X43	Y43	Z43	X44	Y44	Z44	X45	Y45	Z45	X46	Y46	Z46	X47	Y47	Z47	X48	Y48	Z48	X49	Y49	Z49	X50	Y50	Z50	X51	Y51	Z51	

247	1.025	-37.092	1212.5	285.82	-145.52	1447.9	469.5	-183.21	1472.3	133.89	-154.46	1769	322.81	-62.856	999.23	404.64	-66.491	1004	173.12	-264.28	1020.7	329.27	-263.53	1023.2	235.98	-139.04	892.19	473.78	-142.28	892.34	104.41	-157.63	1067.7	450.05	-165	1082.3	142.11	-279.46	980.23	282.04	-193.66	696.61	451.21	-127.85	589.56	418.91	-196.7	607.63	430.34	-116.99	682.07	441.36	-185.76	499.04	412.51	-204.2	509.14	286.37	-332.92	367.61	415.09	-311.06	283.17	391.99	-371.83	301.81	405.08	-271.44	349.36	404.05	-458.6	158.57	367.71	-423.99	159.43	289.95	-517.23	144.32	318.72	-517.62	116.4	290.77	-523.01	119.51	352.18	NaN	NaN	NaN	-351.4	45.99	276.65	-289.35	42.379	322.89	-91.373	682.55	126.13	21.144	628.02	145.98	-44.81	606.36	144.86	-21.626	703.33	121.4	5.5544	521.87	160.78	10.559	523.48	286.45	-17.398	335.9	158.82	63.048	261.16	180.77	-8.6758	263.72	173.69	47.713	334.8	166.14	42.906	98.999	185.89	66.575	108.21	273.49	-5.9605	72.229	236.58	11.357	39.449	268.79	5.1259	44.526	204.79	180.12	48.624	175.87	196.94	60.097	288.96	258.59	84.111	240.77	-231.11	1505.6	302.88	-271.38	1220.9	312.94
248	1.0292	-31.56	1213	285.41	-140.45	1448.2	468.97	-177.74	1472.6	133.3	-149.14	1769.3	322.4	-57.064	999.49	404.04	-60.872	1004.4	172.6	-258.57	1021	329.11	-257.9	1023.6	235.82	-132.81	892.04	473.25	-136.77	892.86	103.99	-151.8	1067.9	449.79	-159.31	1082.8	141.86	-273.79	980.57	281.83	-185.8	695.84	450.92	-118.92	589.31	419.17	-187.95	606.81	430.27	-108.95	682.01	441.33	-176.16	498.52	412.94	-193.91	508.13	286.67	-324.94	369.33	415.33	-304.43	284.46	392.62	-364.88	304.14	405.47	-263.78	350.08	404.64	-453.92	162.35	368.66	-418.99	162.39	290.79	-512.24	150.17	319.32	-513.5	122.62	291.16	-518.92	125.47	352.61	NaN	NaN	NaN	-350.43	46.825	276.87	-289.04	42.087	322.89	-86.422	683.01	125.79	25.916	628.09	145.87	-40.106	606.65	144.55	-16.574	703.54	121.22	9.9086	521.91	160.61	14.425	523.53	286.28	-14.448	336.01	158.65	65.312	260.64	180.89	-6.3527	263.76	173.57	50.625	334.4	166.18	43.435	98.822	186	67.151	107.71	273.6	-5.5693	72.536	236.76	11.329	39.522	268.82	5.1639	44.757	204.83	180.29	47.512	175.97	197.18	58.611	289.1	259.08	82.154	240.99	-225.86	1505.8	302.21	-265.83	1221.1	312.43
249	1.0333	-26.044	1213.5	285.02	-135.4	1448.6	468.44	-172.24	1472.9	132.71	-143.82	1769.7	321.99	-51.303	999.8	403.43	-55.291	1004.9	172.07	-252.9	1021.3	328.96	-252.31	1024	235.66	-126.58	891.91	472.72	-131.31	893.47	103.55	-146	1068.1	449.53	-153.66	1083.4	141.61	-268.17	980.98	281.63	-177.81	695.05	450.67	-109.81	589.1	419.47	-179.03	605.98	430.27	-100.78	682	441.35	-166.32	498.02	413.42	-183.31	507.1	286.97	-316.67	371.11	415.59	-297.5	285.82	393.29	-357.63	306.56	405.87	-255.84	350.85	405.26	-448.87	166.26	369.64	-413.66	165.46	291.64	-506.82	156.25	319.95	-508.99	129.09	291.59	-514.46	131.7	353.08	NaN	NaN	NaN	-349.31	47.798	277.11	-288.65	41.781	322.89	-81.494	683.53	125.39	30.652	628.22	145.72	-35.432	606.99	144.18	-11.554	703.82	121.01	14.198	521.99	160.41	18.239	523.63	286.08	-11.597	336.16	158.46	67.483	260.16	180.96	-4.1208	263.86	173.43	53.438	334.04	166.17	43.898	98.685	186.09	67.661	107.28	273.69	-5.229	72.812	236.92	11.29	39.595	268.84	5.1803	44.968	204.86	180.43	46.541	176.03	197.38	57.282	289.21	259.49	80.393	241.17	-220.62	1506	301.54	-260.29	1221.4	311.91
250	1.0375	-20.547	1214.1	284.65	-130.36	1449	467.93	-166.73	1473.3	132.14	-138.51	1770.1	321.57	-45.578	1000.1	402.83	-49.746	1005.5	171.55	-247.26	1021.6	328.82	-246.76	1024.6	235.52	-120.35	891.79	472.18	-125.89	894.16	103.1	-140.24	1068.4	449.28	-148.04	1084	141.37	-262.58	981.43	281.43	-169.71	694.27	450.47	-100.55	588.94	419.83	-169.96	605.17	430.33	-92.506	682.02	441.41	-156.25	497.55	413.93	-172.42	506.06	287.28	-308.12	372.95	415.86	-290.3	287.26	393.99	-350.09	309.05	406.3	-247.63	351.68	405.9	-443.46	170.3	370.61	-408.01	168.63	292.5	-500.97	162.53	320.61	-504.09	135.79	292.04	-509.6	138.19	353.57	NaN	NaN	NaN	-348.02	48.921	277.36	-288.13	41.462	322.92	-76.596	684.09	124.93	35.348	628.42	145.54	-30.791	607.38	143.76	-6.5692	704.15	120.76	18.413	522.09	160.17	22.011	523.76	285.84	-8.8476	336.35	158.23	69.558	259.73	181	-1.9829	263.99	173.28	56.147	333.72	166.11	44.304	98.581	186.18	68.113	106.91	273.77	-4.9336	73.058	237.06	11.246	39.666	268.85	5.1814	45.157	204.89	180.53	45.703	176.05	197.55	56.108	289.3	259.84	78.825	241.31	-215.37	1506.3	300.87	-254.76	1221.7	311.4
251	1.0417	-15.07	1214.7	284.29	-125.33	1449.5	467.41	-161.19	1473.8	131.59	-133.2	1770.5	321.16	-39.894	1000.5	402.23	-44.238	1006.1	171.03	-241.66	1022.1	328.69	-241.24	1025.2	235.39	-114.14	891.7	471.65	-120.52	894.93	102.64	-134.52	1068.6	449.02	-142.46	1084.7	141.14	-257.02	981.93	281.23	-161.5	693.48	450.32	-91.149	588.83	420.24	-160.74	604.36	430.45	-84.131	682.09	441.52	-145.98	497.11	414.48	-161.25	505.02	287.6	-299.29	374.84	416.16	-282.82	288.78	394.72	-342.26	311.61	406.75	-239.14	352.57	406.56	-437.69	174.47	371.59	-402.05	171.9	293.37	-494.7	169	321.31	-498.8	142.71	292.53	-504.33	144.91	354.1	NaN	NaN	NaN	-346.52	50.208	277.63	-287.47	41.137	322.96	-71.733	684.69	124.41	39.998	628.67	145.33	-26.19	607.82	143.3	-1.6262	704.53	120.49	22.543	522.23	159.89	25.746	523.93	285.57	-6.2047	336.56	157.99	71.537	259.34	181.01	0.059527	264.15	173.11	58.749	333.43	166.01	44.659	98.505	186.27	68.511	106.6	273.84	-4.677	73.272	237.17	11.201	39.736	268.87	5.1722	45.323	204.91	180.62	44.989	176.04	197.69	55.086	289.36	260.14	77.445	241.42	-210.13	1506.7	300.21	-249.25	1222.1	310.89
252	1.0458	-9.6151	1215.3	283.94	-120.3	1450.1	466.91	-155.63	1474.2	131.05	-127.89	1771	320.74	-34.253	1000.9	401.64	-38.766	1006.7	170.52	-236.11	1022.5	328.56	-235.77	1025.8	235.27	-107.94	891.61	471.12	-115.2	895.77	102.18	-128.86	1068.9	448.76	-136.91	1085.4	140.91	-251.51	982.48	281.03	-153.2	692.7	450.22	-81.628	588.77	420.68	-151.41	603.56	430.63	-75.67	682.21	441.67	-135.51	496.7	415.05	-149.84	503.99	287.9	-290.2	376.79	416.48	-275.06	290.37	395.46	-334.15	314.24	407.22	-230.41	353.52	407.23	-431.55	178.75	372.56	-395.78	175.27	294.24	-488.02	175.64	322.04	-493.11	149.8	293.04	-498.67	151.84	354.67	NaN	NaN	NaN	-344.81	51.669	277.92	-286.64	40.81	323.03	-66.916	685.33	123.85	44.59	628.95	145.09	-21.64	608.29	142.8	3.2675	704.95	120.19	26.577	522.38	159.59	29.44	524.11	285.26	-3.6704	336.79	157.72	73.419	258.98	180.97	2.0061	264.33	172.93	61.243	333.16	165.86	44.97	98.45	186.34	68.861	106.35	273.89	-4.4534	73.457	237.27	11.157	39.803	268.87	5.1567	45.467	204.92	180.68	44.386	176	197.8	54.206	289.4	260.38	76.241	241.49	-204.89	1507	299.55	-243.75	1222.5	310.39
253	1.05	-4.1833	1216	283.62	-115.29	1450.7	466.41	-150.05	1474.8	130.53	-122.6	1771.5	320.32	-28.657	1001.3	401.06	-33.329	1007.4	170.02	-230.59	1023	328.45	-230.33	1026.5	235.15	-101.77	891.54	470.6	-109.92	896.67	101.71	-123.24	1069.2	448.51	-131.4	1086.2	140.7	-246.05	983.06	280.84	-144.82	691.93	450.17	-72.005	588.77	421.16	-141.97	602.79	430.85	-67.136	682.36	441.85	-124.88	496.34	415.64	-138.21	503	288.2	-280.85	378.79	416.82	-267.05	292.04	396.21	-325.77	316.93	407.7	-221.43	354.54	407.89	-425.07	183.13	373.53	-389.22	178.73	295.1	-480.94	182.4	322.8	-487.03	157.04	293.59	-492.61	158.94	355.27	NaN	NaN	NaN	-342.85	53.311	278.23	-285.61	40.492	323.13	-62.156	685.98	123.24	49.113	629.27	144.82	-17.152	608.78	142.26	8.1026	705.39	119.86	30.503	522.53	159.25	33.087	524.3	284.93	-1.2458	337.03	157.43	75.205	258.65	180.89	3.8576	264.54	172.73	63.626	332.92	165.68	45.242	98.411	186.41	69.168	106.13	273.92	-4.2578	73.613	237.35	11.118	39.867	268.87	5.1379	45.59	204.93	180.73	43.881	175.93	197.89	53.458	289.41	260.58	75.2	241.53	-199.64	1507.4	298.91	-238.28	1222.9	309.89
254	1.0542	1.2254	1216.7	283.31	-110.28	1451.3	465.93	-144.45	1475.4	130.03	-117.31	1772.1	319.9	-23.11	1001.7	400.49	-27.923	1008.1	169.53	-225.13	1023.4	328.33	-224.93	1027.2	235.03	-95.627	891.49	470.09	-104.69	897.61	101.25	-117.69	1069.5	448.26	-125.93	1087	140.49	-240.62	983.67	280.64	-136.37	691.18	450.17	-62.299	588.83	421.66	-132.44	602.04	431.12	-58.544	682.57	442.06	-114.1	496.03	416.24	-126.4	502.05	288.49	-271.26	380.83	417.17	-258.79	293.78	396.96	-317.14	319.67	408.19	-212.22	355.61	408.56	-418.24	187.6	374.47	-382.37	182.28	295.95	-473.48	189.27	323.58	-480.57	164.39	294.17	-486.16	166.17	355.91	NaN	NaN	NaN	-340.61	55.138	278.57	-284.33	40.193	323.27	-57.465	686.66	122.6	53.554	629.59	144.52	-12.742	609.29	141.7	12.869	705.85	119.5	34.309	522.69	158.88	36.674	524.49	284.57	1.0694	337.28	157.13	76.898	258.34	180.79	5.6156	264.75	172.53	65.9	332.69	165.45	45.481	98.383	186.46	69.439	105.96	273.94	-4.0862	73.743	237.41	11.085	39.927	268.87	5.1181	45.693	204.92	180.77	43.462	175.84	197.97	52.832	289.41	260.74	74.308	241.54	-194.4	1507.8	298.28	-232.82	1223.4	309.4
255	1.0583	6.6111	1217.4	283.03	-105.27	1451.9	465.46	-138.84	1476	129.56	-112.03	1772.6	319.48	-17.612	1002.2	399.94	-22.546	1008.9	169.05	-219.7	1023.9	328.21	-219.57	1028	234.92	-89.52	891.44	469.58	-99.507	898.58	100.79	-112.19	1069.9	448.02	-120.49	1087.9	140.28	-235.24	984.3	280.43	-127.86	690.46	450.21	-52.528	588.95	422.18	-122.84	601.34	431.42	-49.906	682.82	442.31	-103.18	495.78	416.84	-114.44	501.17	288.76	-261.45	382.91	417.54	-250.29	295.59	397.69	-308.27	322.46	408.7	-202.79	356.75	409.2	-411.09	192.16	375.4	-375.25	185.9	296.78	-465.66	196.19	324.39	-473.73	171.81	294.77	-479.33	173.49	356.57	NaN	NaN	NaN	-338.07	57.149	278.95	-282.79	39.925	323.46	-52.855	687.34	121.94	57.9	629.92	144.21	-8.4259	609.8	141.12	17.555	706.31	119.13	37.986	522.83	158.49	40.183	524.66	284.18	3.277	337.53	156.82	78.5	258.05	180.65	7.2826	264.97	172.31	68.066	332.47	165.2	45.692	98.363	186.51	69.677	105.81	273.95	-3.9357	73.849	237.45	11.058	39.985	268.87	5.0989	45.777	204.91	180.8	43.117	175.73	198.03	52.313	289.39	260.87	73.55	241.53	-189.15	1508.3	297.66	-227.39	1224	308.92
256	1.0625	11.975	1218.2	282.76	-100.26	1452.6	464.99	-133.21	1476.6	129.1	-106.76	1773.2	319.07	-12.165	1002.6	399.4	-17.196	1009.7	168.59	-214.33	1024.5	328.1	-214.24	1028.8	234.81	-83.455	891.4	469.09	-94.362	899.59	100.34	-106.75	1070.2	447.78	-115.08	1088.8	140.08	-229.89	984.96	280.23	-119.31	689.77	450.29	-42.71	589.15	422.71	-113.19	600.68	431.74	-41.234	683.12	442.57	-92.158	495.6	417.44	-102.38	500.37	289.01	-251.44	385.04	417.92	-241.58	297.47	398.4	-299.18	325.29	409.2	-193.17	357.94	409.82	-403.63	196.77	376.31	-367.87	189.6	297.59	-457.5	203.13	325.21	-466.54	179.23	295.39	-472.14	180.86	357.26	NaN	NaN	NaN	-335.2	59.34	279.35	-280.93	39.703	323.7	-48.339	688.03	121.26	62.138	630.22	143.86	-4.2189	610.3	140.52	22.151	706.75	118.73	41.526	522.97	158.08	43.594	524.82	283.76	5.3796	337.77	156.5	80.014	257.77	180.48	8.862	265.2	172.09	70.128	332.27	164.92	45.879	98.348	186.55	69.886	105.7	273.94	-3.8041	73.934	237.48	11.038	40.039	268.86	5.0814	45.844	204.89	180.83	42.834	175.6	198.08	51.888	289.36	260.96	72.909	241.49	-183.91	1508.8	297.06	-221.98	1224.5	308.44
